<svg viewBox="0 0 56 88" xmlns="http://www.w3.org/2000/svg"><path fill-rule="evenodd" clip-rule="evenodd" d="M30.38 3.174L27.99.058l-2.378 3.126c-4.24 5.574-10.575 14.805-15.868 24.47-2.647 4.833-5.062 9.827-6.822 14.562C1.178 46.909 0 51.55 0 55.618c0 9.432 2.707 17.52 7.663 23.299C12.653 84.735 19.747 88 28 88c8.23 0 15.328-3.175 20.33-8.966C53.298 73.28 56 65.186 56 55.618c0-4.12-1.175-8.794-2.92-13.51-1.761-4.756-4.177-9.753-6.825-14.58-5.294-9.65-11.633-18.826-15.875-24.354zM15.006 30.536c4.207-7.683 9.116-15.111 13.004-20.504 3.884 5.348 8.784 12.725 12.985 20.382 2.56 4.666 4.832 9.385 6.457 13.776C49.092 48.62 50 52.525 50 55.618c0 8.47-2.385 15.065-6.21 19.494a19.337 19.337 0 01-8.486 5.732C27.41 78.402 21 71.11 17.17 61.509c-3.686-9.242-4.808-20.256-2.61-30.153.148-.273.296-.547.446-.82zM9.44 42.023c-.316.77-.614 1.532-.894 2.283C6.906 48.722 6 52.588 6 55.618c0 8.314 2.38 14.918 6.218 19.393C16.022 79.447 21.428 82 28 82l.273-.002c-6.575-4.054-11.634-11.025-14.818-19.008-2.572-6.447-3.995-13.713-4.015-20.968z" /></svg>